<svg xmlns="http://www.w3.org/2000/svg" width="100" height="100" viewBox="0 0 100 100">
    <defs>
        <clipPath id="1vihz6r4xb"/>
        <filter id="txur91vr1a" x="-45" y="-37" width="190" height="190" filterUnits="userSpaceOnUse">
            <feOffset dy="8"/>
            <feGaussianBlur stdDeviation="15" result="blur"/>
            <feFlood flood-color="#a5bdd5" flood-opacity=".102"/>
            <feComposite operator="in" in2="blur"/>
            <feComposite in="SourceGraphic"/>
        </filter>
    </defs>
    <g transform="translate(-978 -1597)" style="clip-path:url(#1vihz6r4xb)">
        <path data-name="패스 15260" d="M0 0h100L0 100z" transform="translate(978 1597)" style="fill:#c5c5c5"/>
        <circle data-name="타원 143" cx="6" cy="6" r="6" transform="translate(992 1611)" style="fill:#f8f9fa"/>
        <path d="M3.755.456a6.646 6.646 0 0 1-1.926-.28A4.449 4.449 0 0 1 .336-.551L1-2.067a4.417 4.417 0 0 0 1.284.659 4.667 4.667 0 0 0 1.487.249 2.307 2.307 0 0 0 1.219-.256.774.774 0 0 0 .4-.677.657.657 0 0 0-.234-.516 1.754 1.754 0 0 0-.6-.329q-.366-.124-.99-.273a13.318 13.318 0 0 1-1.571-.472 2.554 2.554 0 0 1-1.05-.758A2.1 2.1 0 0 1 .5-5.834a2.485 2.485 0 0 1 .4-1.374 2.682 2.682 0 0 1 1.194-.976 4.72 4.72 0 0 1 1.949-.36 6.24 6.24 0 0 1 1.571.2 4.554 4.554 0 0 1 1.344.572l-.6 1.529a4.559 4.559 0 0 0-2.327-.684 2.121 2.121 0 0 0-1.206.273.842.842 0 0 0-.39.721.7.7 0 0 0 .45.665 6.882 6.882 0 0 0 1.374.429 13.318 13.318 0 0 1 1.571.472 2.6 2.6 0 0 1 1.05.746 2.047 2.047 0 0 1 .438 1.38 2.437 2.437 0 0 1-.4 1.361A2.718 2.718 0 0 1 5.71.1a4.763 4.763 0 0 1-1.955.356zm8.529-8.851a4.523 4.523 0 0 1 1.937.385 2.906 2.906 0 0 1 1.266 1.094 3.1 3.1 0 0 1 .444 1.678 3.1 3.1 0 0 1-.444 1.672 2.854 2.854 0 0 1-1.266 1.094 4.587 4.587 0 0 1-1.937.379h-1.692v2.4H8.649v-8.7zm-.108 4.662a1.991 1.991 0 0 0 1.332-.392 1.387 1.387 0 0 0 .456-1.113 1.4 1.4 0 0 0-.456-1.125 1.991 1.991 0 0 0-1.332-.392h-1.584v3.021zM21.5.456a4.763 4.763 0 0 1-2.357-.584 4.251 4.251 0 0 1-1.643-1.61 4.517 4.517 0 0 1-.6-2.306 4.517 4.517 0 0 1 .6-2.306 4.251 4.251 0 0 1 1.643-1.61 4.763 4.763 0 0 1 2.357-.584 4.73 4.73 0 0 1 2.351.584 4.306 4.306 0 0 1 1.643 1.61 4.482 4.482 0 0 1 .6 2.306 4.482 4.482 0 0 1-.6 2.306 4.306 4.306 0 0 1-1.643 1.61A4.73 4.73 0 0 1 21.5.456zm0-1.715a2.592 2.592 0 0 0 1.344-.354 2.5 2.5 0 0 0 .942-.988 2.989 2.989 0 0 0 .342-1.442 2.989 2.989 0 0 0-.342-1.442 2.5 2.5 0 0 0-.942-.988 2.592 2.592 0 0 0-1.344-.356 2.592 2.592 0 0 0-1.344.354 2.5 2.5 0 0 0-.942.988 2.989 2.989 0 0 0-.342 1.442 2.989 2.989 0 0 0 .339 1.445 2.5 2.5 0 0 0 .942.988 2.592 2.592 0 0 0 1.347.353zm13.756-7.136v8.7h-1.6l-4.182-5.281V.307h-1.92v-8.7h1.607l4.175 5.283v-5.285zm4.75 8.851a6.646 6.646 0 0 1-1.925-.28 4.449 4.449 0 0 1-1.493-.727l.66-1.517a4.417 4.417 0 0 0 1.284.659 4.667 4.667 0 0 0 1.487.249 2.307 2.307 0 0 0 1.224-.255.774.774 0 0 0 .4-.677.657.657 0 0 0-.234-.516 1.754 1.754 0 0 0-.6-.329q-.366-.124-.99-.273a13.318 13.318 0 0 1-1.571-.472 2.554 2.554 0 0 1-1.05-.758 2.1 2.1 0 0 1-.438-1.392 2.485 2.485 0 0 1 .4-1.374 2.682 2.682 0 0 1 1.194-.976 4.72 4.72 0 0 1 1.949-.36 6.24 6.24 0 0 1 1.571.2 4.554 4.554 0 0 1 1.344.572l-.6 1.529a4.56 4.56 0 0 0-2.327-.684 2.121 2.121 0 0 0-1.206.273.842.842 0 0 0-.39.721.7.7 0 0 0 .45.665 6.882 6.882 0 0 0 1.374.429 13.318 13.318 0 0 1 1.571.472 2.6 2.6 0 0 1 1.05.746 2.047 2.047 0 0 1 .438 1.38 2.437 2.437 0 0 1-.4 1.361A2.718 2.718 0 0 1 41.961.1a4.763 4.763 0 0 1-1.955.356zm8.961 0a4.763 4.763 0 0 1-2.357-.584 4.251 4.251 0 0 1-1.643-1.61 4.517 4.517 0 0 1-.594-2.306 4.517 4.517 0 0 1 .594-2.306 4.251 4.251 0 0 1 1.643-1.61 4.763 4.763 0 0 1 2.357-.584 4.73 4.73 0 0 1 2.351.584 4.306 4.306 0 0 1 1.643 1.61 4.482 4.482 0 0 1 .6 2.306 4.482 4.482 0 0 1-.6 2.306 4.306 4.306 0 0 1-1.643 1.61 4.73 4.73 0 0 1-2.351.584zm0-1.715a2.592 2.592 0 0 0 1.344-.354 2.5 2.5 0 0 0 .942-.988 2.989 2.989 0 0 0 .342-1.442 2.989 2.989 0 0 0-.342-1.442 2.5 2.5 0 0 0-.942-.988 2.592 2.592 0 0 0-1.344-.354 2.592 2.592 0 0 0-1.344.354 2.5 2.5 0 0 0-.942.988 2.989 2.989 0 0 0-.342 1.442 2.989 2.989 0 0 0 .343 1.443 2.5 2.5 0 0 0 .942.988 2.592 2.592 0 0 0 1.343.353zM60.375.307l-1.619-2.424h-1.788V.307h-1.943v-8.7h3.635a4.523 4.523 0 0 1 1.937.385 2.906 2.906 0 0 1 1.266 1.094 3.1 3.1 0 0 1 .444 1.678 3.033 3.033 0 0 1-.45 1.672 2.875 2.875 0 0 1-1.278 1.074l1.883 2.8zm-.036-5.544a1.4 1.4 0 0 0-.456-1.125 1.991 1.991 0 0 0-1.332-.392h-1.583v3.033h1.583a1.969 1.969 0 0 0 1.332-.4 1.406 1.406 0 0 0 .456-1.116zm10 3.928V.307h-6.5v-8.7h6.346v1.616h-4.412v1.89h3.9v1.566h-3.9v2.014zm1.547-7.086h3.815a5.2 5.2 0 0 1 2.417.541 3.96 3.96 0 0 1 1.631 1.523 4.4 4.4 0 0 1 .582 2.287 4.4 4.4 0 0 1-.582 2.287 3.96 3.96 0 0 1-1.626 1.523 5.2 5.2 0 0 1-2.417.541h-3.815zm3.724 7.049a2.763 2.763 0 0 0 2.009-.727 2.618 2.618 0 0 0 .75-1.97 2.618 2.618 0 0 0-.75-1.97 2.763 2.763 0 0 0-2.009-.727h-1.776v5.4z" transform="rotate(-45 2509.173 -363.29)" style="fill:#f8f9fa"/>
    </g>
</svg>
