<svg xmlns="http://www.w3.org/2000/svg" width="22" height="22" viewBox="0 0 22 22">
    <g transform="translate(-637 -1510)">
        <circle data-name="타원 40" cx="11" cy="11" r="11" transform="translate(637 1510)" style="fill:#d934e7"/>
        <path data-name="패스 15265" d="M2.38-10.98a2.154 2.154 0 0 1 .25-.7 2.284 2.284 0 0 1 .5-.61 2.374 2.374 0 0 1 .74-.43 2.433 2.433 0 0 1 .95-.14 1.309 1.309 0 0 1 1 .44 1.885 1.885 0 0 1 .39.97 4.547 4.547 0 0 1-.02 1.2 11.088 11.088 0 0 1-.21 1.11 4.645 4.645 0 0 1-.48 1.22q-.28.46-.58.92a2.864 2.864 0 0 1 .65 1.36 5.555 5.555 0 0 1 .07 1.44 4.976 4.976 0 0 1-.31 1.3 4.76 4.76 0 0 1-.66 1.2 3.706 3.706 0 0 1-.98.9 2.618 2.618 0 0 1-1.27.4 1.294 1.294 0 0 1-1.07-.37 1.543 1.543 0 0 1-.27-1.31zm2.54 6.74a2.849 2.849 0 0 0-.09-1.29 2.564 2.564 0 0 0-.45-.89 11.543 11.543 0 0 1-1.01.89 8.714 8.714 0 0 1-1.23.81l-.36 2.4a1.342 1.342 0 0 0 .13.99.651.651 0 0 0 .69.23 2.057 2.057 0 0 0 .88-.37 3 3 0 0 0 .7-.72 4.066 4.066 0 0 0 .49-.96 4.7 4.7 0 0 0 .25-1.09zm.34-5.04q.08-.28.17-.75a4.005 4.005 0 0 0 .07-.93 2.04 2.04 0 0 0-.19-.81.725.725 0 0 0-.59-.41 1.158 1.158 0 0 0-.59.07 1.523 1.523 0 0 0-.48.31 1.765 1.765 0 0 0-.35.47 1.722 1.722 0 0 0-.18.53l-.84 5.22a6.288 6.288 0 0 0 1.08-.8 7.016 7.016 0 0 0 .88-.97 7.451 7.451 0 0 0 .64-1.01 5 5 0 0 0 .38-.92z" transform="translate(644.354 1527.629)" style="fill:#fff;stroke:#fff"/>
    </g>
</svg>
